<?xml version="1.0" encoding="UTF-8"?><svg id="Artwork" xmlns="http://www.w3.org/2000/svg" viewBox="0 0 70.87 37.57"><g><path d="M21.24,34.45c.7,0,1.1,.49,1.03,1.08l-.33,.06c.03-.42-.15-.83-.69-.83-.51,0-.87,.47-.87,1.26s.35,1.27,.87,1.27,.75-.45,.72-.84l.33,.06c.03,.51-.31,1.09-1.07,1.09-.69,0-1.21-.54-1.21-1.57s.56-1.56,1.23-1.56Z"/><path d="M24.27,34.45c.64,0,1.18,.54,1.18,1.56s-.54,1.55-1.18,1.55-1.18-.53-1.18-1.55,.54-1.56,1.18-1.56Zm0,2.8c.51,0,.82-.45,.82-1.25s-.31-1.26-.82-1.26-.82,.46-.82,1.26,.31,1.25,.82,1.25Z"/><path d="M26.78,37.5h-.35v-3h.96c.49,0,.92,.28,.92,.88s-.43,.88-.92,.88h-.61v1.24Zm.56-2.7h-.56v1.15h.56c.45,0,.61-.28,.61-.57s-.17-.57-.61-.57Z"/><path d="M29.22,34.5h1.84v.3h-1.49v1.02h.94v.3h-.94v1.1h1.54v.3h-1.89v-3Z"/><path d="M32.01,37.5v-3h.44l1.38,2.37v-2.37h.33v3h-.37l-1.45-2.5v2.5h-.33Z"/><path d="M35.31,37.5v-3h.35v1.31h1.5v-1.31h.35v3h-.35v-1.39h-1.5v1.39h-.35Z"/><path d="M40.1,36.63h-1.12l-.27,.88h-.36l.96-3h.48l.96,3h-.38l-.27-.88Zm-.09-.3l-.47-1.53-.46,1.53h.93Z"/><path d="M43.5,37.07c-.12,.22-.39,.48-.87,.48-.76,0-1.21-.65-1.21-1.55s.48-1.55,1.26-1.55,1.13,.52,1.05,1.07l-.33,.06c.05-.51-.2-.83-.7-.83-.57,0-.91,.51-.91,1.24s.32,1.26,.89,1.26,.8-.47,.82-.9h-.81v-.28h1.11v1.43h-.23l-.08-.43Z"/><path d="M44.82,34.5h1.83v.3h-1.49v1.02h.94v.3h-.94v1.1h1.54v.3h-1.89v-3Z"/><path d="M47.62,37.5v-3h.44l1.38,2.37v-2.37h.33v3h-.37l-1.45-2.5v2.5h-.33Z"/></g><g><path d="M0,26.19c.9-.31,1.66-.89,2.27-1.74,.61-.85,1.24-2.28,1.88-4.29L10.74,0h2.3l7.28,22.42c.42,1.3,.82,2.24,1.22,2.84,.4,.59,.82,.9,1.28,.93l.02,.7h-7.12v-.7c.38-.08,.69-.25,.92-.49,.23-.24,.35-.53,.35-.87,0-.25-.1-.7-.3-1.36-.06-.19-.11-.34-.14-.45l-1.44-4.69H6.1l-1.14,3.51c-.11,.36-.19,.7-.24,1.02-.05,.32-.08,.61-.08,.87,0,.68,.15,1.22,.45,1.64,.3,.42,.75,.68,1.33,.8v.7H0v-.7Zm14.72-9.13l-3.94-13-4.25,13H14.72Z"/><path d="M33.34,24.06c-2.07,1.4-3.53,2.31-4.4,2.72-.86,.41-1.61,.62-2.24,.62-.82,0-1.47-.31-1.93-.92-.47-.61-.7-1.45-.7-2.52V13.36c0-.78-.11-1.34-.33-1.68-.22-.33-.6-.53-1.13-.59v-.54c.75-.2,1.46-.5,2.13-.9,.67-.4,1.29-.9,1.85-1.49h.59v14.18c0,.87,.13,1.47,.39,1.82,.26,.35,.7,.52,1.32,.52,.54,0,1.18-.14,1.94-.43,.76-.29,1.6-.7,2.52-1.25V13.98c0-.99-.1-1.68-.3-2.08-.2-.4-.56-.66-1.07-.78l-.02-.62c.65-.2,1.31-.49,1.95-.87,.65-.38,1.32-.87,2.01-1.46h.57v14.91c0,1.09,.13,1.86,.38,2.31,.26,.45,.69,.71,1.29,.79l.02,.7h-4.83v-2.82Z"/><path d="M47.73,26.66c-.92,.49-1.88,.74-2.91,.74-1.86,0-3.34-.76-4.46-2.27-1.12-1.52-1.68-3.55-1.68-6.09,0-3.06,.67-5.51,2-7.38,1.33-1.86,3.07-2.79,5.23-2.79,.9,0,1.72,.18,2.45,.55,.73,.37,1.34,.89,1.83,1.57V5.14c0-.78-.11-1.34-.33-1.66-.22-.32-.6-.51-1.13-.55v-.55c.76-.2,1.48-.5,2.15-.9,.67-.4,1.28-.89,1.83-1.47h.59V23.85c0,.83,.1,1.43,.31,1.78,.21,.36,.55,.54,1.03,.55l.02,.7h-4.46v-2.37c-.73,.94-1.55,1.66-2.46,2.15Zm2.46-10.37c0-2.06-.39-3.65-1.16-4.79-.77-1.14-1.85-1.7-3.23-1.7-1.26,0-2.23,.64-2.9,1.92-.67,1.28-1.01,3.12-1.01,5.52,0,2.64,.39,4.69,1.16,6.16,.77,1.47,1.85,2.2,3.23,2.2,.74,0,1.45-.23,2.13-.7,.68-.46,1.28-1.12,1.78-1.96v-6.65Z"/><path d="M57.56,24.79c-1.46-1.74-2.19-3.97-2.19-6.69s.73-4.93,2.19-6.65c1.46-1.72,3.31-2.59,5.57-2.59s4.1,.86,5.56,2.59c1.46,1.72,2.19,3.94,2.19,6.65s-.73,4.95-2.19,6.69-3.31,2.6-5.55,2.6-4.1-.87-5.57-2.6Zm8.63-.4c.68-1.36,1.02-3.42,1.02-6.16s-.34-4.99-1.01-6.37c-.67-1.38-1.7-2.07-3.08-2.07s-2.39,.69-3.08,2.06-1.03,3.43-1.03,6.18,.34,4.95,1.02,6.33c.68,1.38,1.71,2.07,3.09,2.07s2.39-.68,3.07-2.04Z"/></g></svg>