<?xml version="1.0" encoding="utf-8"?>
<!-- Generator: Adobe Illustrator 26.2.1, SVG Export Plug-In . SVG Version: 6.00 Build 0)  -->
<svg version="1.0" id="Livello_1" xmlns="http://www.w3.org/2000/svg" xmlns:xlink="http://www.w3.org/1999/xlink" x="0px" y="0px"
	 viewBox="0 0 1190.55 841.89" style="enable-background:new 0 0 1190.55 841.89;" xml:space="preserve">
<style type="text/css">
	.st0{fill-rule:evenodd;clip-rule:evenodd;}
</style>
<g>
	<path class="st0" d="M332.17,498.37c-5.02,16.43-23.29,25.07-41.09,25.07c-51.6,0-55.25-38.9-57.08-56.2h166.66v-10.81
		c0-105.04-66.21-126.66-114.15-126.66c-106.39,0-116.43,88.62-116.43,116.28c0,94.67,52.51,125.79,121,125.79
		c41.55,0,89.95-18.16,106.85-73.49H332.17z M235.83,427.91c3.65-30.26,19.63-48.42,49.77-48.42c20.55,0,45.66,11.24,49.31,48.42
		H235.83z"/>
	<path class="st0" d="M639.07,255.41h-58.98v110.23h-0.84c-9.27-14.7-26.96-35.88-64.88-35.88c-49.29,0-93.11,38.91-93.11,118.45
		c0,63.11,27.81,123.63,94.37,123.63c24.44,0,50.56-9.08,64.88-35.02h0.84v28.96h57.72V255.41z M481.93,452.54
		c0-36.31,12.64-70.46,50.13-70.46c40.45,0,50.56,37.18,50.56,73.92c0,34.15-14.75,66.14-52.24,66.14
		C492.46,522.13,481.93,479.77,481.93,452.54z"/>
	<path class="st0" d="M670.8,565.79h58.98V446.05c0-25.5,8.43-54.9,54.35-54.9c5.48,0,11.8,0,16.85,0.86v-61.38
		c-3.79-0.43-7.58-0.86-11.38-0.86c-35.81,0-49.29,22.48-61.51,45.82h-0.84v-39.77H670.8V565.79z"/>
	<path class="st0" d="M1007.41,396.34c0-56.63-57.72-66.57-89.32-66.57c-45.92,0-93.53,9.94-100.27,80.4h56.88
		c1.69-13.4,6.74-31.99,36.23-31.99c15.17,0,38.76,1.3,38.76,26.8c0,12.97-11.38,16.86-20.64,18.16l-53.08,8.21
		c-37.5,5.62-65.3,28.53-65.3,73.49c0,47.55,34.55,67,68.25,67c40.02,0,58.98-19.02,72.46-33.29c1.26,12.97,2.11,16.43,5.48,27.23
		h63.62v-15.08c-7.16-2.59-13.06-2.65-13.06-29.88V396.34z M949.69,483.23c0,28.1-26.54,45.39-52.66,45.39
		c-11.38,0-27.38-6.48-27.38-27.67c0-25.07,18.12-30.69,40.02-34.58c24.44-3.89,34.13-7.78,40.02-12.54V483.23z"/>
</g>
</svg>
