<?xml version="1.0" encoding="UTF-8"?>
<svg id="Ebene_1" xmlns="http://www.w3.org/2000/svg" version="1.1" viewBox="0 0 1002.71 1008">
  <!-- Generator: Adobe Illustrator 29.0.1, SVG Export Plug-In . SVG Version: 2.1.0 Build 192)  -->
  <defs>
    <style>
      .st0 {
        fill: #1d1d1b;
      }
    </style>
  </defs>
  <g>
    <path class="st0" d="M481.48,625.74h18.36v1.27c0,37.19-.21,74.38.07,111.57.2,27.28-12.69,46.49-35.93,59.13-29.48,16.04-67.04,11.32-91.83-11.2-13.11-11.91-20.04-26.84-20.04-44.74,0-38.35,0-76.69,0-115.04v-.98h18.78v1.26c0,37,.54,74.01-.18,110.99-.54,27.54,18.81,44.76,39.83,49.82,17.44,4.19,34.19,2.2,49.34-7.83,13.92-9.21,21.63-22.14,21.61-39.21-.04-37.87-.01-75.73-.01-113.6v-1.43Z"/>
    <path class="st0" d="M805.81,787.75v16.86h-142.6c37.27-54.1,74.28-107.82,111.62-162.02h-89.54v-16.85h123.36c-37.25,54.07-74.26,107.79-111.61,162.01h108.78Z"/>
    <polygon class="st0" points="194.07 625.74 194.07 804.69 303.38 804.69 303.38 787.93 212.22 787.93 212.22 625.74 194.07 625.74"/>
    <rect class="st0" x="582.88" y="625.74" width="17.93" height="178.96"/>
  </g>
  <g>
    <path class="st0" d="M500.82,524.72c-42.96,0-77.91-34.95-77.91-77.91l.99-158.92h0c.48-20.33,8.78-39.37,23.29-53.66,14.65-14.44,34.05-22.39,54.62-22.39s39.97,7.95,54.62,22.39c14.5,14.29,22.82,33.33,23.3,53.66h0v.55s-.99,158.38-.99,158.38c0,42.96-34.95,77.91-77.91,77.91ZM424.98,288.98l-.98,157.84c0,42.36,34.46,76.82,76.83,76.82s76.83-34.47,76.83-76.83l.98-157.92v-.45c-.34-20.25-8.54-39.22-22.97-53.44-14.45-14.23-33.57-22.07-53.86-22.07s-39.41,7.84-53.86,22.07c-14.43,14.22-22.63,33.19-22.97,53.44v.53Z"/>
    <path class="st0" d="M501.32,535.74c-49.32,0-89.44-40.12-89.44-89.44v-159.7h0c1.94-47.5,41.7-85.78,89.44-85.78s87.5,38.29,89.44,85.78h0v159.7c0,49.32-40.12,89.44-89.44,89.44ZM416.21,290.94v155.36c0,46.93,38.18,85.1,85.1,85.1s85.1-38.18,85.1-85.1l-.07-157.49c-.78-46.12-38.93-83.65-85.03-83.65s-84.25,37.52-85.03,83.65l-.08,2.13Z"/>
    <path class="st0" d="M560.52,290.31c-1.97-30.8-28.06-55.42-59.2-55.42s-57.23,24.61-59.2,55.42h0v152.17c-.02,2.32.32,6.15.32,6.15,3.09,29.76,28.31,53.05,58.88,53.05s55.79-23.29,58.88-53.05c0,0,.32-5.3.32-6.15v-152.17ZM554.86,416.11c0,4.67,0,6.83,0,10.57h-91.02v-134.49h10.49v123.92h80.53ZM554.85,383.87c0,4.48,0,6.29,0,10.57h-58.77v-102.1h10.49v91.53h48.28ZM447.81,293.17c.49-29.03,24.5-52.65,53.51-52.65s53.02,23.62,53.51,52.65l.02,51.01c0,.63-.01,1.26-.01,1.89h-10.62v-59.15h-21.64v81h32.27c0,2.34,0,8.96,0,10.48h-42.76v-91.1h-21.64v112.62h64.4c0,4.51,0,6.55,0,10.64h-74.89v-123.4h-21.58v145.16h96.48l-.03,10.66h-106.92c-.01-1.17-.03-2.19-.04-5.64,0-12.69,0-33.99.01-56.66,0-4.07-.05-6.89-.13-8.7v-76.04l.05-2.77ZM554.84,351.65c0,4.15,0,6.29,0,10.55h-26.75v-70.23h10.61v59.68h16.14ZM501.32,496.03c-27.45,0-50.12-20.76-53.18-47.41h106.36c-3.07,26.64-25.73,47.41-53.18,47.41Z"/>
  </g>
</svg>