<?xml version="1.0" encoding="UTF-8"?>
<svg id="Capa_1" xmlns="http://www.w3.org/2000/svg" version="1.1" viewBox="0 0 1759.71 412.95">
  <!-- Generator: Adobe Illustrator 29.5.1, SVG Export Plug-In . SVG Version: 2.1.0 Build 141)  -->
  <path d="M799.5,226.11h23.91c26.94-.19,48.05-15.44,48.05-43.66v-.38c0-26.32-18.3-42.34-46.36-42.34h-39.73v133.48h14.12v-47.1h.01ZM799.5,152.89h24.87c19.96,0,32.77,10.31,32.77,29.75v.2c0,18.3-12.82,30.32-33.36,30.32h-24.28v-60.26h0Z"/>
  <path d="M949.45,218.49c18.28-4.58,31.28-17.36,31.28-38.52v-.38c0-11.26-3.78-20.78-10.38-27.47-7.51-7.81-19.57-12.4-34.64-12.4h-45.01v133.48h14.13v-51.86h29.93l33.16,51.86h16.96l-35.43-54.72h0ZM933.25,208.38h-28.43v-55.49h29.93c19.78,0,31.83,9.73,31.83,27.27v.38c0,16.96-11.85,27.83-33.33,27.83h0Z"/>
  <polygon points="1230.54 260.05 1169.32 260.05 1169.32 139.73 1155.2 139.73 1155.2 273.21 1230.54 273.21 1230.54 260.05"/>
  <rect x="1250.06" y="139.73" width="14.12" height="133.48"/>
  <polygon points="1438.96 212.77 1502.61 212.77 1502.61 273.21 1516.72 273.21 1516.72 139.73 1502.61 139.73 1502.61 199.42 1438.96 199.42 1438.96 139.73 1424.83 139.73 1424.83 273.21 1438.96 273.21 1438.96 212.77"/>
  <polygon points="1536.54 139.73 1536.54 153.09 1573.45 153.09 1573.45 273.21 1587.59 273.21 1587.59 153.09 1624.7 153.09 1624.7 139.73 1536.54 139.73"/>
  <path d="M1064.87,137.65c-37.29,0-67.51,30.81-67.51,68.82s30.22,68.83,67.51,68.83,67.5-30.82,67.5-68.83-30.22-68.82-67.5-68.82ZM1064.87,262.15c-30.17,0-54.62-24.93-54.62-55.68s24.45-55.68,54.62-55.68,54.6,24.92,54.6,55.68-24.46,55.68-54.6,55.68Z"/>
  <path d="M1402.28,255.87l-8.24-10.1c-9.9,10.12-23.56,16.37-38.69,16.37-30.16,0-54.62-24.92-54.62-55.66s24.46-55.68,54.62-55.68c14.21,0,27.09,5.58,36.81,14.63l8.05-10.28c-11.93-10.85-27.62-17.51-44.86-17.51-37.3,0-67.5,30.82-67.5,68.84s30.2,68.82,67.5,68.82c18.25,0,34.79-7.42,46.93-19.43h0Z"/>
  <path d="M687.8,140.06h-192.9c-13.38,0-16.83,4.42-20.12,7.49-81.9,76.66-81.55,76.39-115.36,108.68-9.11,8.69-11.64,8.69-14.83,8.69h-197.42c-3.16,0-2.78-4.25-1.54-6.45,2.44-4.32,55.83-98.81,58.19-102.98,1.62-2.87,6.68-6.74,11.27-6.74h165.87c10.92,0,15.07,8.48,16.45,13.28,1.39,4.8,8.25,27.68,8.25,27.68l7.91-7.56s-4.37-13.54-7.25-23.62c-2.17-7.61-9.31-18.47-23.19-18.47h-160.57c-20.02,0-24.94,8.7-29.84,17.37-9.61,17.01-46.01,81.44-55.83,98.8-4.89,8.66.1,17.37,9.94,17.22,22.12-.15,192.85.15,192.85.15,13.35,0,13.97-.1,31.59-16.84,8.88-8.44,24.57-23.47,40.91-39.08l10.99,38.55c5.75,17.37,30.08,17.37,32.87,17.37h156.28c20.24,0,30.04-17.37,30.04-17.37,26.15-43.34,30.92-54.7,55.83-98.8,9.81-17.37-1.33-17.37-10.41-17.37h.02Z"/>
</svg>