<?xml version="1.0" encoding="utf-8"?>
<!-- Generator: Adobe Illustrator 27.3.1, SVG Export Plug-In . SVG Version: 6.00 Build 0)  -->
<svg version="1.1" id="Laag_1" xmlns="http://www.w3.org/2000/svg" xmlns:xlink="http://www.w3.org/1999/xlink" x="0px" y="0px"
	 viewBox="0 0 560.6 137.6" style="enable-background:new 0 0 560.6 137.6;" xml:space="preserve">
<style type="text/css">
	.st0{fill:#1D1D1B;}
</style>
<path class="st0" d="M8.6,1.2l18.3,42.8l17-42.8h3.9l-22,55.1h-2.1L0,1.2H8.6z"/>
<path class="st0" d="M68.2,1.2h8.2v53.9h-8.2V1.2z"/>
<path class="st0" d="M102.8,1.2h4.6l31.8,39.4h0.3V1.2h3.6v55.1h-1.9l-34.4-43.8h-0.3v42.5h-3.7V1.2z"/>
<path class="st0" d="M176.9,28.4c-0.1,3.5,0.5,6.9,1.5,10.2c0.9,2.8,2.3,5.4,4.2,7.6c1.7,2,3.9,3.7,6.3,4.8c2.5,1.1,5.2,1.7,8,1.7
	c1.7,0,3.4-0.4,4.9-1.1c1.6-0.7,3.1-1.7,4.4-2.9c1.4-1.2,2.6-2.5,3.6-4c1-1.4,1.9-2.9,2.6-4.5l3.4,2.5c-1,1.8-2.2,3.6-3.5,5.2
	c-1.4,1.7-2.9,3.2-4.7,4.4c-1.9,1.3-3.9,2.3-6.1,3.1c-2.4,0.8-5,1.2-7.6,1.2c-2.6,0-5.1-0.3-7.6-1c-2.3-0.7-4.5-1.6-6.6-2.9
	c-2-1.2-3.8-2.7-5.3-4.4c-1.6-1.7-2.9-3.6-4-5.7c-1.1-2.1-1.9-4.4-2.5-6.7c-0.6-2.4-0.9-4.9-0.9-7.3c0-2.5,0.3-5,0.9-7.4
	c0.6-2.3,1.4-4.6,2.5-6.7c1.1-2.1,2.4-4,4-5.8c1.6-1.7,3.5-3.2,5.5-4.5c2.1-1.3,4.3-2.3,6.6-3c2.5-0.7,5.1-1,7.7-1
	c2.4,0,4.8,0.4,7.1,1.2c2.1,0.7,4.2,1.8,6,3.1c1.8,1.3,3.4,2.8,4.8,4.4c1.4,1.6,2.6,3.4,3.6,5.2l-3.5,2.6c-2-4.4-4.3-7.6-6.8-9.6
	c-2.4-2-5.5-3-8.6-3c-2.7,0-5.4,0.6-7.9,1.7c-2.4,1.1-4.6,2.8-6.4,4.9c-1.9,2.3-3.3,4.9-4.3,7.7C177.4,21.5,176.9,24.9,176.9,28.4z"
	/>
<path class="st0" d="M274,1.2v3.5h-25.6V24h17.1v3.5h-17.1v24.2H274v3.5h-33.7V1.2H274z"/>
<path class="st0" d="M297.3,1.2h4.6l31.8,39.4h0.4V1.2h3.6v55.1h-1.9l-34.5-43.8H301v42.5h-3.7V1.2z"/>
<path class="st0" d="M402.5,1.2v3.5H385v50.4h-8.1V4.7h-17.6V1.2H402.5z"/>
<path class="st0" d="M120.5,134.2c1.2,0,2.4-0.2,3.6-0.5c1.1-0.3,2.2-0.9,3.1-1.6c0.9-0.7,1.7-1.6,2.2-2.6c0.6-1.1,0.9-2.4,0.8-3.6
	c0-1.5-0.4-3.1-1.1-4.4c-0.8-1.3-1.8-2.5-3-3.5c-1.3-1.1-2.8-2.1-4.3-3c-1.6-0.9-3.2-1.9-4.9-2.8c-1.7-1-3.3-2-4.9-3
	c-1.5-1-3-2.2-4.3-3.5c-1.2-1.3-2.2-2.7-3-4.3c-0.8-1.7-1.2-3.6-1.1-5.5c0-2,0.3-3.9,1-5.7c0.7-1.7,1.7-3.3,3.1-4.6
	c1.4-1.3,3.1-2.3,5-3c2.2-0.8,4.5-1.1,6.8-1.1c4.6,0,8.2,1.1,10.9,3.2c2.8,2.4,4.8,5.7,5.8,9.3l-4.1,2.1c-0.5-1.6-1.1-3.1-1.9-4.5
	c-0.7-1.3-1.6-2.5-2.7-3.5c-1.1-1-2.3-1.7-3.6-2.3c-1.5-0.5-3.1-0.8-4.6-0.8c-1.4,0-2.7,0.2-4,0.7c-1.1,0.4-2,1.1-2.9,1.9
	c-0.7,0.7-1.3,1.6-1.7,2.6c-0.4,1-0.6,2-0.6,3c0,1.4,0.4,2.7,1.2,3.9c0.9,1.3,1.9,2.4,3.1,3.3c1.4,1.1,2.8,2.1,4.4,3
	c1.7,1,3.3,2,5,3s3.4,2.1,5,3.1c1.6,1,3.1,2.2,4.4,3.6c1.2,1.2,2.3,2.7,3.1,4.2c0.8,1.6,1.2,3.3,1.2,5.1c0,2.1-0.4,4.1-1.1,6
	c-0.7,1.8-1.8,3.5-3.3,4.9c-1.6,1.5-3.4,2.6-5.4,3.3c-2.4,0.9-5,1.3-7.6,1.2c-2.1,0-4.2-0.3-6.2-0.9c-3.5-1-6.5-3.3-8.4-6.5
	c-1-1.7-1.9-3.5-2.5-5.3l4.4-2c0.5,1.7,1.1,3.2,2,4.7c0.8,1.3,1.8,2.5,3,3.5c1.1,1,2.4,1.7,3.8,2.2C117.5,134,119,134.2,120.5,134.2
	z"/>
<path class="st0" d="M168.9,110.5v25.8h-8.1V82.5h8.1v24.6h24.4V82.5h8.1v53.9h-8.1v-25.8H168.9z"/>
<path class="st0" d="M261.6,82.5V86H236v19.3h17.1v3.5H236v24.2h25.5v3.5h-33.7V82.5H261.6z"/>
<path class="st0" d="M284.9,82.5h15.3c2.4,0,4.8,0.3,7.1,1c2.1,0.6,4.1,1.6,5.8,3c1.6,1.3,3,3,3.9,4.8c1,2,1.5,4.3,1.4,6.5
	c0.1,2.2-0.4,4.4-1.4,6.4c-0.9,1.8-2.1,3.3-3.6,4.5c-1.5,1.2-3.3,2.1-5.1,2.7c-1.9,0.6-3.9,0.9-5.8,0.9c-0.8,0-1.7,0-2.6-0.1
	s-1.8-0.1-2.7-0.2s-1.6-0.2-2.4-0.3c-0.6-0.1-1.2-0.2-1.8-0.3v25h-8.1V82.5z M293,108.4c0.9,0.3,1.9,0.5,2.9,0.8
	c1.1,0.3,2.1,0.4,3.2,0.4c1.6,0,3.2-0.3,4.6-0.9c1.3-0.5,2.4-1.4,3.3-2.4c0.9-1,1.5-2.3,2-3.6c0.4-1.4,0.7-2.9,0.6-4.3
	c0-1.7-0.3-3.4-0.9-4.9c-0.5-1.4-1.3-2.7-2.3-3.8c-1-1-2.1-1.8-3.5-2.4c-1.3-0.6-2.8-0.9-4.2-0.8H293V108.4z"/>
<path class="st0" d="M339.8,82.5h15.4c2.4,0,4.8,0.3,7.1,1c2.1,0.6,4.1,1.6,5.8,3c1.6,1.3,3,3,3.9,4.8c1,2,1.5,4.3,1.4,6.5
	c0.1,2.2-0.4,4.4-1.4,6.4c-0.9,1.8-2.1,3.3-3.6,4.5c-1.5,1.2-3.3,2.1-5.1,2.7c-1.9,0.6-3.9,0.9-5.8,0.9c-0.8,0-1.7,0-2.6-0.1
	s-1.8-0.1-2.7-0.2s-1.6-0.2-2.4-0.3c-0.6-0.1-1.2-0.2-1.8-0.3v25h-8.1V82.5z M348,108.4c0.9,0.3,1.9,0.5,2.9,0.8
	c1.1,0.3,2.1,0.4,3.2,0.4c1.6,0,3.2-0.3,4.6-0.9c1.3-0.5,2.4-1.4,3.3-2.4c0.9-1,1.5-2.3,1.9-3.6c0.4-1.4,0.7-2.9,0.6-4.3
	c0-1.7-0.3-3.4-0.9-4.9c-0.5-1.4-1.3-2.7-2.3-3.8c-1-1-2.1-1.8-3.4-2.4c-1.3-0.6-2.8-0.9-4.2-0.8H348V108.4z"/>
<path class="st0" d="M410.6,81.3l22.8,55.1h-8.3l-7.4-18H397l-7.6,18h-4.1l23.4-55.1L410.6,81.3z M398.4,114.9h17.9l-8.8-21.3
	L398.4,114.9z"/>
<path class="st0" d="M454,82.5h16.8c2.6-0.1,5.2,0.3,7.7,1c2,0.6,3.9,1.6,5.5,2.9c1.4,1.2,2.6,2.7,3.3,4.4c0.8,1.8,1.1,3.7,1.1,5.6
	c0,1.6-0.3,3.2-0.9,4.7c-0.6,1.5-1.4,2.8-2.4,4c-1.1,1.2-2.4,2.2-3.8,3c-1.5,0.9-3.1,1.6-4.8,2l17.6,26.1h-9.4L467.8,111h-5.7v25.3
	H454V82.5z M462.1,108.3h4.7c1.7,0,3.4-0.3,5.1-0.8c1.5-0.5,2.8-1.3,4-2.3c1.1-1,2-2.2,2.7-3.6c0.7-1.5,1-3.1,1-4.8
	c0-1.5-0.2-3-0.8-4.4c-0.5-1.3-1.2-2.5-2.1-3.5c-0.9-1-2-1.7-3.2-2.3c-1.3-0.6-2.7-0.8-4.1-0.8h-7.2L462.1,108.3z"/>
<path class="st0" d="M514.4,82.5h16.1c4.3-0.1,8.7,0.4,12.9,1.5c3.4,0.9,6.4,2.6,9,4.9c2.7,2.5,4.8,5.5,6.2,8.9
	c1.4,3.5,2.1,7.2,2.1,11c0,3.6-0.6,7.3-1.9,10.7c-2.4,6.7-7.6,12-14.2,14.6c-3.8,1.5-7.9,2.2-12,2.1h-18.1V82.5z M522.6,132.4h8.6
	c2.7,0,5.3-0.5,7.7-1.5c2.4-1,4.6-2.5,6.3-4.5c1.9-2.1,3.3-4.6,4.2-7.3c1.1-3.2,1.6-6.6,1.5-10c0-3.1-0.5-6.2-1.5-9.1
	c-0.9-2.6-2.3-5.1-4.1-7.2c-3.6-4.1-8.8-6.4-14.2-6.4h-8.7L522.6,132.4z"/>
</svg>
