<?xml version="1.0" encoding="UTF-8" standalone="no"?>
<!DOCTYPE svg PUBLIC "-//W3C//DTD SVG 1.1//EN" "http://www.w3.org/Graphics/SVG/1.1/DTD/svg11.dtd">
<svg width="100%" height="100%" viewBox="0 0 71 69" version="1.1" xmlns="http://www.w3.org/2000/svg" xmlns:xlink="http://www.w3.org/1999/xlink" xml:space="preserve" xmlns:serif="http://www.serif.com/" style="fill-rule:evenodd;clip-rule:evenodd;stroke-linejoin:round;stroke-miterlimit:2;">
    <g transform="matrix(1,0,0,1,36.162,28.04)">
        <g>
            <g>
                <path d="M0,11.92C4.607,12.12 7.511,12.521 9.414,13.422L-4.106,-18.128L-10.618,-2.202C-12.82,3.907 -12.02,8.314 -8.314,10.417C-6.01,11.719 -2.204,11.819 0,11.92M15.824,27.744C11.518,17.028 8.814,13.622 -2.505,13.121C-6.41,12.921 -9.216,12.32 -11.218,11.019C-12.62,10.016 -13.923,8.715 -14.423,7.212L-24.339,31.451C-26.843,37.659 -21.735,39.264 -18.029,39.163L-18.029,40.064C-21.534,40.064 -25.54,39.763 -29.046,39.763C-31.55,39.763 -33.653,40.064 -36.157,40.064L-36.157,39.163C-34.655,38.963 -29.345,38.362 -26.641,32.05C-17.927,11.719 -1.802,-28.144 -1.802,-28.044L-0.403,-28.044L25.138,31.451C26.941,35.656 29.446,39.064 34.253,39.064L34.253,40.064C31.449,40.064 28.344,39.763 25.539,39.763C22.134,39.763 14.923,40.064 11.518,40.064L11.518,39.064C16.325,39.064 18.929,36.258 16.726,30.149L15.824,27.744Z" style="fill:rgb(217,212,200);fill-rule:nonzero;"/>
            </g>
        </g>
    </g>
</svg>
