<?xml version="1.0" encoding="utf-8"?>
<!-- Generator: Adobe Illustrator 28.3.0, SVG Export Plug-In . SVG Version: 6.00 Build 0)  -->
<svg version="1.1" id="Layer_1" xmlns="http://www.w3.org/2000/svg" xmlns:xlink="http://www.w3.org/1999/xlink" x="0px" y="0px"
	 viewBox="0 0 625.4 88.2" style="enable-background:new 0 0 625.4 88.2;" xml:space="preserve">
<style type="text/css">
	.st0{fill:#FFFFFF;}
</style>
<g>
	<g>
		<g>
			<path class="st0" d="M52,55.9c-4.3-10.7-7-14.1-18.3-14.6c-3.9-0.2-6.7-0.8-8.7-2.1c-1.4-1-2.7-2.3-3.2-3.8l-9.9,24.2
				c-2.5,6.2,2.6,7.8,6.3,7.7v0.9c-3.5,0-7.5-0.3-11-0.3c-2.5,0-4.6,0.3-7.1,0.3v-0.9c1.5-0.2,6.8-0.8,9.5-7.1
				C18.2,39.9,34.3,0,34.3,0.1h1.4l25.5,59.5c1.8,4.2,4.3,7.6,9.1,7.6v1c-2.8,0-5.9-0.3-8.7-0.3c-3.4,0-10.6,0.3-14,0.3v-1
				c4.8,0,7.4-2.8,5.2-8.9L52,55.9z M36.2,40.1c4.6,0.2,7.5,0.6,9.4,1.5L32,10L25.5,26c-2.2,6.1-1.4,10.5,2.3,12.6
				C30.2,39.9,34,40,36.2,40.1z"/>
			<path class="st0" d="M73.6,63.4l1.3-9.3h0.6c2,7.1,8.3,14.1,17.6,14.1c8.5-0.1,10.5-6.1,10.2-9.6c-0.4-6-5.4-8.4-16.8-13
				c-7.4-3-10.5-6.9-10.2-12.3c0.3-4.4,3.7-9.9,13.1-10.8c6.8-0.6,14,1.3,16.7,3.9l-1,8h-0.6c-3.2-7.6-8.7-11.5-15.6-10.6
				c-4.5,0.7-7.2,4.1-6.9,7.8c0.1,2.8,1.8,5.3,7.5,7.8c3,1.4,5.1,2.1,7.7,3.2c9.7,3.8,12.9,8.6,12,15.1c-0.9,5.9-7.1,12.9-20,12
				C81.9,69.1,76.2,66.4,73.6,63.4z"/>
			<path class="st0" d="M167.4,45.8c-0.3,12.1-9.1,23.4-23.1,23.9c-8,0.3-13.4-2.6-16.4-5.7c0.1,11.7,0.3,17.9,0.3,17.9
				c0.2,4.4,1.3,5.1,5.3,5.4v0.9H133c0,0-3.6-0.1-6.6-0.1h-0.3c-6.4,0-10,0.1-10,0.1h-0.4v-0.9c4.1-0.4,5.2-0.8,5.4-5.4
				c0,0,0.1-10.2,0.1-27.5c0-10.3-0.1-21.9-0.3-24.3c-0.1-1.3-0.1-2.5-1.6-2.6c-1.3-0.1-2.9,0-4.2,0.2l-0.2-0.9
				c4.6-1.4,8.8-2.9,12.8-4.6l0.3,0.2c0,0,0,4.1-0.1,9.5c3.4-5.5,10.5-9.6,18.5-9.7C159.8,22,167.6,32.2,167.4,45.8z M160,45.9
				c-0.2-11.9-7.3-20.4-17.3-20.1c-3.7,0.1-11,1.9-14.8,8.4c0,5.2-0.1,11.3-0.1,16.1c0.4,12.7,9.1,18.2,16.7,17.8
				C154.9,67.7,160.2,57.7,160,45.9z"/>
			<path class="st0" d="M208.9,24.8l-2,8h-0.6c-1.8-5.6-6.1-6.5-8.7-6.7c-2-0.1-7.1,0.1-10.6,4.6v15.9c0,9.1,0.1,15.1,0.1,15.1
				c0.2,4.6,2.9,5.1,8.7,5.4v1h-0.4l-10.2-0.1c-6.7,0-10.3,0.1-10.3,0.1h-0.4v-1c4-0.3,5.1-1,5.3-5.4c0,0,0.2-6,0.2-15.1
				c0-9.4,0.1-14-0.1-16.4c-0.1-1.3-0.1-2.5-1.6-2.6c-1.3-0.2-2.5,0.1-3.8,0.3l-0.2-1.1c3.4-1,10-3.3,12.4-4.6l0.3,0.2v6.8
				c3-4.1,8.3-6.3,11.6-6.7C203,22,207.4,23.2,208.9,24.8z"/>
			<path class="st0" d="M255.9,58.9l1,0.6c-3.2,6.2-9.9,10.7-20,10.5c-12.9-0.3-23.3-9.6-23.6-23.7c-0.2-13.4,8.7-24.2,23.9-24
				c10.2,0.1,19.5,6.1,20.6,16.4l-36.7,0.1c-0.5,2.4-0.6,5-0.4,7.7c0.9,11.8,8.6,18.8,18.1,19.2C246.1,66.1,252.9,63.1,255.9,58.9z
				 M221.6,37.3h28.7c-1.1-7.1-5.1-13.4-13.6-13.5C229,23.6,223.6,29.5,221.6,37.3z"/>
			<path class="st0" d="M313.4,67.1v1.1h-1c0,0-4-0.1-10.2-0.1h-1.4c-0.2-1.9-0.4-3.9-0.5-6c-3.4,4.2-9.8,7.8-17,8.3
				c-11.6,0.7-17.2-5.8-17.6-11.5c-0.6-6.5,1.7-13.2,17.4-17.7c4.9-1.3,15.9-3,16.9-9.1c-0.1-0.8-0.2-1.7-0.4-2.8
				c-0.4-1.5-1.1-2.6-2.4-3.6c-2.5-1.8-6.8-2.3-10.6-1.6c-7.1,1.1-12.5,5.6-15.5,13.4h-0.8l-1.5-9.3c2.4-2,7.1-4.4,14.3-5.5
				c9.5-1.5,21.6,0.4,23,9.7c0.5,2.8,0.5,6.8,0.5,10c0,10.3,0.3,17.8,0.4,18.6c0,0.1,0,0.1,0,0c0.1,4,2.5,5.6,5.2,6
				C312.9,67.1,313.4,67.1,313.4,67.1z M300.2,60c-0.2-4.1-0.2-8.9-0.2-13.9v-9c0-0.3,0-0.5,0-0.8c-1.6,2.4-4.4,3.5-13.8,6.7
				c-12.3,4.1-13.5,10.6-13,14.5c0.9,6.5,6.5,9.2,13.4,8.8C292.3,66.1,297.6,63.3,300.2,60z"/>
			<path class="st0" d="M344,61.3c0.1-2,1.7-14.3,1.7-14.3h0.7c1.8,11,10.3,20.3,21.9,21s16.9-5.7,16.6-13.9
				c-0.4-9-7.5-13.3-21.6-19.1c-13.8-5.7-16.3-12.5-16-19.4C348.1,6.8,356-0.2,368.2,0c9.5,0.1,15.8,3.6,18.9,7.3l-1.5,11h-0.7
				C383,9.8,377.5,2,368,1.6c-9.3-0.4-13.8,6.1-13.7,12c0.1,3.6,0.6,8.9,12.2,13.8c6.5,2.8,11.8,5,16.1,7.5
				c7.2,4,10.8,11.5,8.7,20.3c-2.3,9.4-11.4,16.2-27.3,14.6C352.5,68.8,345.9,63.1,344,61.3z"/>
			<path class="st0" d="M430.6,64.5c-2.2,2.9-6.7,5.7-12.9,5.5c-9.7,0-13.9-5.7-13.9-16V25.3h-7.6v-0.9c7.4-0.3,12.8-3.6,13.7-14.1
				h1.3l-0.1,13.8l13.7-0.1v1.3h-13.7L411,40v11.4c0,7.4,1,13.6,7.9,14.9c4.2,0.9,8.6-0.3,11-2.3L430.6,64.5z"/>
			<path class="st0" d="M487.8,67.2v1h-0.9c0,0-3.9-0.1-10.6-0.1h-1.8c0,0,0.1-4,0.1-9.6c-4.1,6.6-11.7,11.1-19.3,11.4
				c-5.4,0.2-9.9-0.9-13-4.9c-2.5-3.2-3.2-8-3.3-14.8c-0.1-6.3,0.1-13.5-0.1-19.8c-0.1-4-2.6-5.3-5.2-5.3h-1.1v-0.9h0.9l12.6,0.1
				v21.8c0,10.5,0.7,19,10.9,19.4c6.3,0.3,14.4-3.6,17.7-9.3V46c0-9.5-0.1-15.6-0.1-15.6c-0.1-4-2.6-5.3-5.2-5.3h-1.1v-0.9h0.9
				l12.6,0.1l-0.1,5.5c0,0-0.2,6.4-0.2,15.9c0,11.3,0.2,15.3,0.2,15.3c0.1,5,2.4,5.7,5,6.1C487.3,67.2,487.8,67.2,487.8,67.2z"/>
			<path class="st0" d="M543.3,67.2c-2.6-0.4-5.2-3.1-5.3-8.1c-0.1-4.4-0.2-13.8-0.2-24.4C537.8,15.7,538,1,538,1l-0.3-0.2
				c-3.6,1.6-7.4,3-12.5,4.6l0.3,0.9c1.2-0.3,2.6-0.4,3.8-0.2c1.6,0.2,1.6,1.5,1.7,2.9c0.2,2.2,0.3,6.1,0.3,17.6
				c-3.3-2.5-9.1-4.7-16.9-4.3c-13.1,0.7-22.5,9.9-22.6,23.2c-0.2,15,10.3,24.8,24,23.9c7.5-0.5,12.6-4.2,15.4-7.9
				c0,4.5-0.1,6.6-0.1,6.6h1.8c6.7,0,10.6,0.1,10.6,0.1h0.9v-1C544.4,67.3,543.9,67.3,543.3,67.2z M531.2,57.7V59
				c-2.3,3.6-6.4,7.4-13.8,7.4c-10,0-17.5-8.5-17.9-20.6c-0.6-12.1,5.1-20,12.7-21.7c9.6-2.1,18.7,2.8,19.1,16.3
				C531.3,46.8,531.2,53.5,531.2,57.7z"/>
			<path class="st0" d="M570,67.2v1h-0.4c0,0-3.7-0.1-10.5-0.1h-0.3c-3,0-6.8,0.1-6.8,0.1h-0.4v-1c4-0.3,5.6-1,5.7-5.4
				c0,0,0.2-5.5,0.2-16.1c0-10.4,0-13.1-0.2-15.5c-0.1-1.3-0.1-2.5-1.6-2.6c-1.3-0.1-2.6-0.1-3.9,0.1l-0.3-0.9
				c5-1.5,8.3-2.7,12.8-4.6l0.3,0.2c0,0-0.2,12.8-0.2,23.3c0,10.6,0.1,16.1,0.1,16.1C564.6,66.4,565.9,66.8,570,67.2z M556,9.6
				c0-2.2,1.9-4.1,4.3-4.1c2.5,0,4.4,1.9,4.4,4.1c0,2.5-1.9,4.5-4.4,4.5C557.9,14.1,556,12.1,556,9.6z"/>
			<path class="st0" d="M576.9,45.8c0.1-14.1,10.2-23.3,24.7-23.3c14.6,0,24,9.3,23.7,23.6c-0.2,13-9.3,23.5-24.1,23.5
				C587.2,69.6,576.8,59.4,576.9,45.8z M618.2,45.7c-0.1-12.1-5.9-22.2-17-21.8c-10.9,0.3-16.6,11-16.6,22.5
				c0,11.3,6.6,22.2,17.6,21.8C613.1,67.6,618.2,57.2,618.2,45.7z"/>
		</g>
	</g>
</g>
</svg>
