<svg viewBox="0 0 297.97 9.41" xmlns="http://www.w3.org/2000/svg" data-name="Layer 1" id="Layer_1">
  <defs>
    <style>
      .cls-1 {
        fill: #231f20;
      }
    </style>
  </defs>
  <path d="M0,.16h1.48l4.88,6.29V.16h1.57v9.1h-1.34L1.57,2.78v6.47H0V.16Z" class="cls-1"></path>
  <path d="M17.86.09h1.48l4,9.17h-1.69l-.92-2.2h-4.3l-.94,2.2h-1.64L17.86.09ZM20.14,5.64l-1.57-3.64-1.56,3.64h3.13Z" class="cls-1"></path>
  <path d="M31.52,1.65h-2.89V.16h7.38v1.48h-2.89v7.62h-1.61V1.65Z" class="cls-1"></path>
  <path d="M43.35.16h6.75v1.43h-5.15v2.37h4.56v1.43h-4.56v2.44h5.21v1.43h-6.81V.16Z" class="cls-1"></path>
  <path d="M67.02.16h4.08c1.04,0,1.86.29,2.38.81.4.4.61.9.61,1.51v.03c0,1.09-.62,1.68-1.3,2.03,1.07.36,1.81.98,1.81,2.21v.03c0,1.62-1.34,2.5-3.37,2.5h-4.21V.16ZM72.49,2.73c0-.71-.57-1.16-1.6-1.16h-2.3v2.42h2.18c1.03,0,1.72-.4,1.72-1.23v-.03ZM71.13,5.34h-2.54v2.5h2.65c1.09,0,1.76-.43,1.76-1.25v-.03c0-.77-.61-1.22-1.87-1.22Z" class="cls-1"></path>
  <path d="M82.1.16h6.75v1.43h-5.15v2.37h4.56v1.43h-4.56v2.44h5.21v1.43h-6.81V.16Z" class="cls-1"></path>
  <path d="M96.36.16h4.06c1.14,0,2.04.34,2.63.91.48.49.75,1.17.75,1.96v.03c0,1.5-.9,2.39-2.16,2.76l2.46,3.45h-1.9l-2.24-3.17h-2v3.17h-1.6V.16ZM100.29,4.67c1.14,0,1.87-.6,1.87-1.52v-.03c0-.98-.7-1.51-1.89-1.51h-2.33v3.06h2.34Z" class="cls-1"></path>
  <path d="M111.36.16h1.6v4.58L117.29.16h1.98l-3.8,3.91,3.96,5.19h-1.95l-3.11-4.1-1.42,1.46v2.64h-1.6V.16Z" class="cls-1"></path>
  <path d="M126.04,5.4V.16h1.6v5.17c0,1.69.87,2.59,2.3,2.59s2.29-.85,2.29-2.52V.16h1.6v5.16c0,2.72-1.53,4.08-3.91,4.08s-3.87-1.36-3.87-4Z" class="cls-1"></path>
  <path d="M140.99,7.93l.96-1.14c.87.75,1.75,1.18,2.87,1.18.99,0,1.61-.47,1.61-1.14v-.03c0-.65-.36-1-2.05-1.39-1.94-.47-3.03-1.04-3.03-2.72v-.03c0-1.56,1.3-2.64,3.11-2.64,1.33,0,2.38.4,3.3,1.14l-.86,1.21c-.82-.61-1.64-.94-2.47-.94-.94,0-1.48.48-1.48,1.08v.03c0,.7.42,1.01,2.17,1.43,1.92.47,2.91,1.16,2.91,2.67v.03c0,1.7-1.34,2.72-3.25,2.72-1.39,0-2.7-.48-3.8-1.46Z" class="cls-1"></path>
  <path d="M167.97.09h1.48l4,9.17h-1.69l-.92-2.2h-4.3l-.94,2.2h-1.64L167.97.09ZM170.26,5.64l-1.57-3.64-1.56,3.64h3.13Z" class="cls-1"></path>
  <path d="M179.71,7.93l.96-1.14c.87.75,1.75,1.18,2.87,1.18.99,0,1.61-.47,1.61-1.14v-.03c0-.65-.36-1-2.05-1.39-1.94-.47-3.03-1.04-3.03-2.72v-.03c0-1.56,1.3-2.64,3.11-2.64,1.33,0,2.38.4,3.3,1.14l-.86,1.21c-.82-.61-1.64-.94-2.47-.94-.94,0-1.48.48-1.48,1.08v.03c0,.7.42,1.01,2.17,1.43,1.92.47,2.91,1.16,2.91,2.67v.03c0,1.7-1.34,2.72-3.25,2.72-1.39,0-2.7-.48-3.8-1.46Z" class="cls-1"></path>
  <path d="M193.37,7.93l.96-1.14c.87.75,1.75,1.18,2.87,1.18.99,0,1.61-.47,1.61-1.14v-.03c0-.65-.36-1-2.05-1.39-1.94-.47-3.03-1.04-3.03-2.72v-.03c0-1.56,1.3-2.64,3.11-2.64,1.33,0,2.38.4,3.3,1.14l-.86,1.21c-.82-.61-1.64-.94-2.47-.94-.94,0-1.48.48-1.48,1.08v.03c0,.7.42,1.01,2.17,1.43,1.92.47,2.91,1.16,2.91,2.67v.03c0,1.7-1.34,2.72-3.25,2.72-1.39,0-2.7-.48-3.8-1.46Z" class="cls-1"></path>
  <path d="M207.36,4.73v-.03c0-2.56,1.98-4.71,4.77-4.71s4.75,2.12,4.75,4.68v.03c0,2.56-1.98,4.71-4.77,4.71s-4.75-2.12-4.75-4.68ZM215.2,4.73v-.03c0-1.77-1.29-3.24-3.09-3.24s-3.07,1.44-3.07,3.21v.03c0,1.77,1.29,3.22,3.09,3.22s3.07-1.43,3.07-3.2Z" class="cls-1"></path>
  <path d="M223.87,4.73v-.03c0-2.59,1.94-4.71,4.69-4.71,1.68,0,2.69.58,3.56,1.42l-1.03,1.18c-.73-.68-1.51-1.13-2.55-1.13-1.73,0-3,1.43-3,3.21v.03c0,1.78,1.26,3.22,3,3.22,1.12,0,1.83-.44,2.61-1.17l1.03,1.04c-.95.99-1.99,1.61-3.69,1.61-2.65,0-4.63-2.07-4.63-4.68Z" class="cls-1"></path>
  <path d="M239.42.16h1.6v9.1h-1.6V.16Z" class="cls-1"></path>
  <path d="M252.14.09h1.48l4,9.17h-1.69l-.92-2.2h-4.3l-.94,2.2h-1.64L252.14.09ZM254.42,5.64l-1.57-3.64-1.56,3.64h3.13Z" class="cls-1"></path>
  <path d="M265.71,1.64h-2.89V.16h7.38v1.48h-2.89v7.62h-1.61V1.64Z" class="cls-1"></path>
  <path d="M277.36.16h6.75v1.43h-5.15v2.37h4.56v1.43h-4.56v2.44h5.21v1.43h-6.81V.16Z" class="cls-1"></path>
  <path d="M290.92,7.93l.96-1.14c.87.75,1.75,1.18,2.87,1.18.99,0,1.61-.47,1.61-1.14v-.03c0-.65-.36-1-2.05-1.39-1.94-.47-3.03-1.04-3.03-2.72v-.03c0-1.56,1.3-2.64,3.11-2.64,1.33,0,2.38.4,3.3,1.14l-.86,1.21c-.82-.61-1.64-.94-2.47-.94-.94,0-1.48.48-1.48,1.08v.03c0,.7.42,1.01,2.17,1.43,1.92.47,2.91,1.16,2.91,2.67v.03c0,1.7-1.34,2.72-3.25,2.72-1.39,0-2.7-.48-3.8-1.46Z" class="cls-1"></path>
</svg>